<?xml version="1.0" encoding="utf-8"?>
<!-- Generator: Adobe Illustrator 24.1.1, SVG Export Plug-In . SVG Version: 6.00 Build 0)  -->
<svg version="1.1" id="Layer_1" xmlns="http://www.w3.org/2000/svg" xmlns:xlink="http://www.w3.org/1999/xlink" x="0px" y="0px"
	 viewBox="0 0 1000 200" style="enable-background:new 0 0 1000 200;" xml:space="preserve">
<style type="text/css">
	.st0{fill:#FFFFFF;}
	.st1{fill:none;stroke:#000000;stroke-width:5;stroke-miterlimit:10;}
	.st2{clip-path:url(#SVGID_2_);}
	.st3{clip-path:url(#SVGID_4_);}
	.st4{clip-path:url(#SVGID_4_);fill:#00393F;}
	.st5{clip-path:url(#SVGID_6_);}
	.st6{clip-path:url(#SVGID_8_);}
	.st7{clip-path:url(#SVGID_8_);fill:#22B573;stroke:#22B573;stroke-width:5;stroke-miterlimit:10;}
	.st8{fill:#00393F;}
	.st9{fill:#22B573;}
	.st10{clip-path:url(#SVGID_10_);}
	.st11{clip-path:url(#SVGID_10_);fill:#22B573;stroke:#22B573;stroke-width:5;stroke-miterlimit:10;}
	.st12{clip-path:url(#SVGID_12_);}
	.st13{clip-path:url(#SVGID_12_);fill:#22B573;stroke:#22B573;stroke-width:5;stroke-miterlimit:10;}
</style>
<path class="st0" d="M-3875.61,1193h-67.78c-6.41,0-11.61-5.2-11.61-11.61v-62.78c0-6.41,5.2-11.61,11.61-11.61h67.78
	c6.41,0,11.61,5.2,11.61,11.61v62.78C-3864,1187.8-3869.2,1193-3875.61,1193z"/>
<text transform="matrix(1 0 0 1 -3611.353 574)"><tspan x="0" y="0" class="st8" style="font-family:'Brightside'; font-size:100px; letter-spacing:7;">Aut</tspan><tspan x="140.7" y="0" class="st9" style="font-family:'Brightside'; font-size:100px; letter-spacing:7;">Home</tspan><tspan x="338.1" y="0" class="st8" style="font-family:'Brightside'; font-size:100px; letter-spacing:7;">Mate</tspan></text>
<path class="st1" d="M-3044,526"/>
<g>
	<defs>
		
			<rect id="SVGID_1_" x="-3732.24" y="486.67" transform="matrix(0.0143 -0.9999 0.9999 0.0143 -4166.2158 -3152.8643)" width="100" height="100"/>
	</defs>
	<clipPath id="SVGID_2_">
		<use xlink:href="#SVGID_1_"  style="overflow:visible;"/>
	</clipPath>
	<path class="st2" d="M-3672.46,541.8"/>
	<path class="st2" d="M-3633.08,535.2l-43.46-46.36c-0.01-0.01-0.02-0.03-0.04-0.04c-2.7-2.78-7.16-2.84-9.94-0.14
		c-0.01,0.01-0.03,0.03-0.04,0.04l-44.76,45.1c-1.22,1.22-1.21,3.2,0.02,4.42c1.22,1.22,3.2,1.21,4.42-0.02l2.47-2.49l-0.59,41.37
		c-0.07,4.95,3.9,9.04,8.85,9.11l66.4,0.95c4.95,0.07,9.04-3.9,9.11-8.86l0.59-41.37l2.4,2.56c0.6,0.64,1.42,0.98,2.24,0.99
		c0.78,0.01,1.57-0.27,2.18-0.84C-3631.97,538.43-3631.9,536.46-3633.08,535.2L-3633.08,535.2z M-3646.89,578.19
		c-0.02,1.51-1.27,2.72-2.77,2.7l-66.4-0.95c-1.51-0.02-2.72-1.26-2.7-2.77l0.68-47.85l35.92-36.19c0.31-0.28,0.78-0.28,1.08,0.02
		l34.87,37.2L-3646.89,578.19z M-3646.89,578.19"/>
</g>
<g>
	<text transform="matrix(1 0 0 1 -2654.3271 217.6162)"><tspan x="0" y="0" class="st8" style="font-family:'Droid-Regular'; font-size:175.5236px; letter-spacing:13;">Aut</tspan><tspan x="164.28" y="0" class="st9" style="font-family:'Droid-Regular'; font-size:175.5236px; letter-spacing:13;">home</tspan><tspan x="411.24" y="0" class="st8" style="font-family:'Droid-Regular'; font-size:175.5236px; letter-spacing:13;">mate</tspan></text>
	<g>
		<defs>
			
				<rect id="SVGID_3_" x="-2830.29" y="65.91" transform="matrix(0.0143 -0.9999 0.9999 0.0143 -2856.8535 -2610.3928)" width="155.76" height="155.76"/>
		</defs>
		<clipPath id="SVGID_4_">
			<use xlink:href="#SVGID_3_"  style="overflow:visible;"/>
		</clipPath>
		<path class="st3" d="M-2737.2,151.79"/>
		<path class="st4" d="M-2675.86,141.51l-67.69-72.21c-0.02-0.02-0.04-0.04-0.06-0.06c-4.21-4.33-11.16-4.43-15.49-0.22
			c-0.02,0.02-0.04,0.04-0.06,0.06l-69.72,70.24c-1.89,1.91-1.88,4.99,0.03,6.88c1.91,1.89,4.99,1.88,6.88-0.03l3.85-3.88
			l-0.92,64.44c-0.11,7.72,6.08,14.08,13.79,14.19l103.42,1.48c7.72,0.11,14.08-6.08,14.19-13.79l0.92-64.44l3.74,3.99
			c0.94,1,2.21,1.52,3.48,1.54c1.22,0.02,2.44-0.42,3.4-1.32C-2674.12,146.55-2674.02,143.47-2675.86,141.51L-2675.86,141.51z
			 M-2697.36,208.47c-0.03,2.35-1.97,4.23-4.32,4.2l-103.42-1.48c-2.35-0.03-4.23-1.97-4.2-4.32l1.07-74.53l55.95-56.36
			c0.48-0.44,1.22-0.43,1.68,0.02l54.31,57.94L-2697.36,208.47z M-2697.36,208.47"/>
	</g>
</g>
<g>
	<text transform="matrix(1 0 0 1 -1903.9238 199.4551)"><tspan x="0" y="0" class="st8" style="font-family:'Gordon-Regular'; font-size:150px; letter-spacing:11;">aut</tspan><tspan x="203.1" y="0" class="st9" style="font-family:'Gordon-Regular'; font-size:150px; letter-spacing:11;">home</tspan><tspan x="530.09" y="0" class="st8" style="font-family:'Gordon-Regular'; font-size:150px; letter-spacing:11;">mate</tspan></text>
	<g>
		<defs>
			<polygon id="SVGID_5_" points="-2033.4,241.84 -1930.67,267.17 -1927.78,64.53 -2030.5,39.2 			"/>
		</defs>
		<clipPath id="SVGID_6_">
			<use xlink:href="#SVGID_5_"  style="overflow:visible;"/>
		</clipPath>
		<path class="st5" d="M-2010.74,174.81"/>
	</g>
</g>
<g>
	<text transform="matrix(1 -2.700000e-04 2.700000e-04 1 -1006.0377 133.5339)"><tspan x="0" y="0" class="st8" style="font-family:'LowveticaDemiBold'; font-size:170px; letter-spacing:12;">aut</tspan><tspan x="239.53" y="0" class="st9" style="font-family:'LowveticaDemiBold'; font-size:170px; letter-spacing:12;">h  me</tspan><tspan x="616.24" y="0" class="st8" style="font-family:'LowveticaDemiBold'; font-size:170px; letter-spacing:12;">mate</tspan></text>
</g>
<g>
	<defs>
		
			<rect id="SVGID_7_" x="-681.67" y="62.43" transform="matrix(0.0143 -0.9999 0.9999 0.0143 -739.3634 -546.1444)" width="69.97" height="79.01"/>
	</defs>
	<clipPath id="SVGID_8_">
		<use xlink:href="#SVGID_7_"  style="overflow:visible;"/>
	</clipPath>
	<path class="st6" d="M-638.96,105.54"/>
	<path class="st7" d="M-607.86,100.97l-34.39-32.49c-0.01-0.01-0.02-0.02-0.03-0.03c-2.14-1.95-5.66-2-7.86-0.11
		c-0.01,0.01-0.02,0.02-0.03,0.03l-35.31,31.5c-0.96,0.86-0.95,2.24,0.02,3.09c0.97,0.85,2.53,0.85,3.49-0.01l1.95-1.74l-0.41,28.94
		c-0.05,3.47,3.09,6.33,7.01,6.39l52.46,0.75c3.91,0.06,7.14-2.72,7.19-6.18l0.41-28.94l1.9,1.8c0.48,0.45,1.12,0.68,1.77,0.69
		c0.62,0.01,1.24-0.19,1.72-0.59C-606.97,103.23-606.92,101.85-607.86,100.97L-607.86,100.97z M-618.7,131.03
		c-0.02,1.06-1,1.9-2.19,1.88l-52.46-0.75c-1.19-0.02-2.15-0.89-2.13-1.94l0.48-33.48l28.33-25.27c0.24-0.2,0.62-0.19,0.85,0.01
		l27.6,26.07L-618.7,131.03z M-618.7,131.03"/>
</g>
<g>
	<g>
		<path class="st8" d="M78.05,126.04l0.85,0c0.57,0,1.36-0.09,2.38-0.26c1.02-0.17,2.89-0.71,5.61-1.62l0,10.37
			c-2.04,0.57-3.71,0.99-5.01,1.28c-1.3,0.28-2.75,0.43-4.33,0.43c-3.29,0-5.58-0.74-6.88-2.21c-1.31-1.47-2.13-3.4-2.47-5.78
			c-2.04,1.93-4.22,3.49-6.54,4.68c-2.32,1.19-4.65,2.07-6.97,2.64c-2.32,0.57-4.56,0.94-6.71,1.11c-2.15,0.17-4.02,0.26-5.61,0.26
			c-1.25,0-3.34-0.11-6.29-0.34c-2.95-0.23-5.92-0.99-8.92-2.29c-3-1.3-5.67-3.34-7.99-6.12c-2.33-2.78-3.49-6.71-3.49-11.81
			c0-3.63,0.7-6.63,2.12-9.01c1.42-2.38,3.28-4.34,5.61-5.87c2.32-1.53,4.96-2.64,7.9-3.32c2.95-0.68,5.95-1.13,9.01-1.36l20.4-1.37
			c2.61-0.23,4.31-0.62,5.1-1.19c0.79-0.57,1.19-2.04,1.19-4.42c0-1.47-0.2-2.83-0.6-4.08c-0.4-1.25-1.28-2.35-2.64-3.31
			c-1.36-0.96-3.29-1.73-5.78-2.29c-2.49-0.57-5.78-0.85-9.86-0.85c-3.51,0-6.43,0.26-8.75,0.77c-2.32,0.51-4.19,1.36-5.61,2.55
			c-1.42,1.19-2.49,2.78-3.23,4.76c-0.74,1.98-1.27,4.39-1.61,7.23l-11.05,0c0.68-4.87,1.75-8.95,3.23-12.24
			c1.47-3.29,3.46-5.89,5.95-7.82c2.49-1.93,5.5-3.32,9.01-4.17c3.51-0.85,7.59-1.28,12.24-1.28c4.19,0,8.08,0.31,11.65,0.93
			c3.57,0.62,6.69,1.7,9.35,3.23c2.66,1.53,4.73,3.57,6.21,6.12c1.47,2.55,2.21,5.81,2.21,9.77l0.01,32.81
			c0,0.57,0.03,1.05,0.09,1.44c0.06,0.4,0.08,0.82,0.08,1.28c0,0.23,0.03,0.45,0.08,0.68C78.02,125.59,78.05,125.81,78.05,126.04z
			 M66.99,104.28c-0.91,0.23-1.9,0.46-2.97,0.68c-1.08,0.23-2.24,0.4-3.49,0.51l-19.89,1.37c-4.88,0.34-8.44,1.25-10.71,2.72
			c-2.27,1.48-3.4,3.74-3.4,6.8c0,2.27,0.48,4.05,1.45,5.35c0.96,1.3,2.24,2.35,3.83,3.14c1.59,0.79,3.32,1.3,5.19,1.53
			c1.87,0.23,3.77,0.34,5.7,0.34c2.95,0,5.86-0.31,8.75-0.94c2.89-0.62,5.5-1.62,7.82-2.98c2.32-1.36,4.19-3.06,5.61-5.1
			c1.42-2.04,2.12-4.48,2.12-7.31L66.99,104.28z"/>
		<path class="st8" d="M153.87,135.2l0-6.46c-2.38,2.38-5.35,4.34-8.92,5.87s-7.9,2.3-13,2.3c-7.37,0-13.03-1.07-17-3.23
			c-3.97-2.15-6.86-4.67-8.67-7.56c-1.81-2.89-2.89-5.86-3.23-8.92s-0.51-5.5-0.51-7.31l-0.01-38.76l10.88,0l0.01,38.59
			c0,2.61,0.26,4.96,0.77,7.05c0.51,2.1,1.45,3.88,2.81,5.35c1.36,1.47,3.26,2.61,5.7,3.4c2.44,0.79,5.58,1.19,9.44,1.19
			c3.85,0,7.17-0.54,9.94-1.62c2.78-1.08,5.04-2.47,6.8-4.17c1.76-1.7,3.03-3.68,3.82-5.95c0.79-2.27,1.19-4.59,1.19-6.97
			l-0.01-36.89l10.71,0l0.02,64.09L153.87,135.2z"/>
		<path class="st8" d="M217.09,81.12l0.01,53.89l-10.54,0l-0.01-53.89l-25.16,0.01l0-10.03l60.69-0.02l0,10.03L217.09,81.12z"/>
		<path class="st9" d="M310.27,134.81l-0.01-28.39l-40.63,0.01l0.01,28.39l-10.54,0l-0.02-63.92l10.54,0l0.01,25.33l40.63-0.01
			l-0.01-25.33l10.54,0l0.02,63.92L310.27,134.81z"/>
		<path class="st9" d="M515.62,134.93l-0.01-40.63c0-4.19-1.22-7.79-3.66-10.79c-2.44-3-6.66-4.5-12.67-4.5
			c-6.69,0-11.59,1.51-14.7,4.51c-3.12,3-4.67,7.23-4.67,12.67l0.01,38.76l-10.71,0l-0.01-41.82c0-4.31-1.22-7.73-3.66-10.28
			c-2.44-2.55-6.72-3.82-12.84-3.82c-5.89,0-10.6,1.59-14.11,4.76c-3.51,3.18-5.27,7.71-5.27,13.6l0.01,37.57l-10.88,0l-0.02-64.09
			l10.88,0l0.17,5.44c2.6-2.49,5.66-4.34,9.18-5.53c3.51-1.19,7.14-1.79,10.88-1.79c6.23,0,11.13,0.99,14.71,2.97
			c3.57,1.98,6.32,4.5,8.25,7.56c5.32-7.03,12.86-10.54,22.61-10.55c9.18,0,16.06,2.01,20.66,6.03c4.59,4.02,6.89,9.83,6.89,17.42
			l0.01,42.5L515.62,134.93z"/>
		<path class="st9" d="M557.43,106.7c0.79,5.89,3.26,10.68,7.4,14.36c4.14,3.68,9.95,5.52,17.43,5.52c4.31,0,7.76-0.54,10.37-1.62
			c2.61-1.08,4.7-2.35,6.29-3.83c1.36-1.59,2.49-3.23,3.4-4.93c0.57-0.91,1.05-1.81,1.44-2.72c0.4-0.91,0.93-2.1,1.61-3.57l10.71,0
			c-3.17,9.86-7.59,16.81-13.25,20.83c-5.67,4.02-12.69,6.04-21.08,6.04c-5.44,0-10.34-0.79-14.7-2.38
			c-4.37-1.58-8.08-3.85-11.14-6.8c-3.06-2.94-5.42-6.54-7.06-10.79c-1.65-4.25-2.47-9.04-2.47-14.36c0-3.29,0.56-6.89,1.7-10.79
			c1.13-3.91,3.06-7.54,5.78-10.88c2.72-3.34,6.34-6.15,10.88-8.42c4.53-2.27,10.2-3.4,17-3.4c5.55,0,10.48,0.91,14.79,2.72
			c4.31,1.81,7.96,4.39,10.97,7.73c3,3.34,5.27,7.34,6.8,11.98c1.53,4.65,2.35,9.75,2.47,15.3L557.43,106.7z M581.23,79.15
			c-6.35,0-11.45,1.56-15.3,4.68c-3.85,3.12-6.57,7.4-8.16,12.84l46.92-0.01c-1.47-6.12-4.34-10.56-8.59-13.34
			C591.85,80.54,586.89,79.15,581.23,79.15z"/>
		<path class="st8" d="M728.63,134.87l-0.01-40.63c0-4.19-1.22-7.79-3.66-10.79c-2.44-3-6.66-4.5-12.67-4.5
			c-6.69,0-11.59,1.51-14.7,4.51c-3.12,3.01-4.67,7.23-4.67,12.67l0.01,38.76l-10.71,0l-0.01-41.82c0-4.31-1.22-7.73-3.66-10.28
			c-2.44-2.55-6.72-3.82-12.84-3.82c-5.89,0-10.6,1.59-14.11,4.76c-3.51,3.18-5.27,7.71-5.27,13.6l0.01,37.57l-10.88,0l-0.02-64.09
			l10.88,0l0.17,5.44c2.6-2.49,5.66-4.34,9.18-5.53c3.51-1.19,7.14-1.79,10.88-1.79c6.23,0,11.13,0.99,14.71,2.97
			c3.57,1.98,6.32,4.5,8.25,7.56c5.32-7.03,12.86-10.54,22.61-10.55c9.18,0,16.06,2.01,20.66,6.03c4.59,4.02,6.89,9.83,6.89,17.42
			l0.01,42.5L728.63,134.87z"/>
		<path class="st8" d="M821.78,125.84h0.85c0.57,0,1.36-0.09,2.38-0.26c1.02-0.17,2.89-0.71,5.61-1.62l0,10.37
			c-2.04,0.57-3.71,0.99-5.01,1.28c-1.3,0.28-2.75,0.43-4.33,0.43c-3.29,0-5.58-0.74-6.88-2.21c-1.31-1.47-2.13-3.4-2.47-5.78
			c-2.04,1.93-4.22,3.49-6.54,4.68c-2.32,1.19-4.65,2.07-6.97,2.64c-2.32,0.57-4.56,0.94-6.71,1.11c-2.15,0.17-4.02,0.26-5.61,0.26
			c-1.25,0-3.34-0.11-6.29-0.34c-2.95-0.23-5.92-0.99-8.92-2.29c-3-1.3-5.67-3.34-7.99-6.12c-2.33-2.78-3.49-6.71-3.49-11.81
			c0-3.63,0.7-6.63,2.12-9.01c1.42-2.38,3.28-4.34,5.61-5.87c2.32-1.53,4.96-2.64,7.9-3.32c2.95-0.68,5.95-1.13,9.01-1.36l20.4-1.37
			c2.61-0.23,4.31-0.62,5.1-1.19c0.79-0.57,1.19-2.04,1.19-4.42c0-1.47-0.2-2.83-0.6-4.08c-0.4-1.25-1.28-2.35-2.64-3.31
			c-1.36-0.96-3.29-1.73-5.78-2.29c-2.49-0.56-5.78-0.85-9.86-0.85c-3.51,0-6.43,0.26-8.75,0.77c-2.32,0.51-4.19,1.36-5.61,2.55
			s-2.49,2.78-3.23,4.76c-0.74,1.98-1.27,4.39-1.61,7.22l-11.05,0c0.68-4.87,1.75-8.95,3.23-12.24c1.47-3.29,3.46-5.89,5.95-7.82
			c2.49-1.93,5.5-3.32,9.01-4.17c3.51-0.85,7.59-1.28,12.24-1.28c4.19,0,8.08,0.31,11.65,0.93c3.57,0.62,6.69,1.7,9.35,3.23
			c2.66,1.53,4.73,3.57,6.21,6.12c1.47,2.55,2.21,5.81,2.21,9.77l0.01,32.81c0,0.57,0.03,1.05,0.09,1.44
			c0.06,0.4,0.08,0.82,0.08,1.28c0,0.23,0.03,0.45,0.08,0.68C821.75,125.38,821.78,125.61,821.78,125.84z M810.73,104.08
			c-0.91,0.23-1.9,0.46-2.97,0.68c-1.08,0.23-2.24,0.4-3.49,0.51l-19.89,1.37c-4.88,0.34-8.44,1.25-10.71,2.72
			c-2.27,1.48-3.4,3.74-3.4,6.8c0,2.27,0.48,4.05,1.45,5.35c0.96,1.3,2.24,2.35,3.83,3.14c1.59,0.79,3.31,1.3,5.19,1.53
			c1.87,0.23,3.77,0.34,5.7,0.34c2.95,0,5.86-0.31,8.75-0.94c2.89-0.62,5.5-1.62,7.82-2.98c2.32-1.36,4.19-3.06,5.61-5.1
			c1.42-2.04,2.12-4.48,2.12-7.31L810.73,104.08z"/>
		<path class="st8" d="M875.32,80.94l0.01,53.89l-10.54,0l-0.01-53.89l-25.16,0.01l0-10.03l60.69-0.02l0,10.03L875.32,80.94z"/>
		<path class="st8" d="M924.45,106.6c0.79,5.89,3.26,10.68,7.4,14.36c4.14,3.68,9.95,5.52,17.43,5.52c4.31,0,7.76-0.54,10.37-1.62
			c2.61-1.08,4.7-2.35,6.29-3.83c1.36-1.59,2.49-3.23,3.4-4.93c0.57-0.91,1.05-1.81,1.44-2.72c0.4-0.91,0.93-2.1,1.61-3.57l10.71,0
			c-3.17,9.86-7.59,16.81-13.25,20.83c-5.67,4.02-12.69,6.04-21.08,6.04c-5.44,0-10.34-0.79-14.7-2.38
			c-4.37-1.58-8.08-3.85-11.14-6.8c-3.06-2.94-5.42-6.54-7.06-10.79c-1.65-4.25-2.47-9.04-2.47-14.36c0-3.29,0.56-6.89,1.7-10.79
			c1.13-3.91,3.06-7.54,5.78-10.88c2.72-3.34,6.34-6.15,10.88-8.42c4.53-2.27,10.2-3.4,17-3.4c5.55,0,10.48,0.91,14.79,2.72
			c4.31,1.81,7.96,4.39,10.97,7.73c3,3.34,5.27,7.34,6.8,11.98c1.53,4.65,2.35,9.75,2.47,15.3L924.45,106.6z M948.25,79.05
			c-6.35,0-11.45,1.56-15.3,4.68c-3.85,3.12-6.57,7.4-8.16,12.84l46.92-0.01c-1.47-6.12-4.34-10.56-8.59-13.34
			C958.87,80.44,953.91,79.05,948.25,79.05z"/>
	</g>
</g>
<g>
	<defs>
		
			<rect id="SVGID_9_" x="338.33" y="62.43" transform="matrix(0.0143 -0.9999 0.9999 0.0143 266.0577 473.7514)" width="69.97" height="79.01"/>
	</defs>
	<clipPath id="SVGID_10_">
		<use xlink:href="#SVGID_9_"  style="overflow:visible;"/>
	</clipPath>
	<path class="st10" d="M381.04,105.54"/>
	<path class="st11" d="M412.14,100.97l-34.39-32.49c-0.01-0.01-0.02-0.02-0.03-0.03c-2.14-1.95-5.66-2-7.86-0.11
		c-0.01,0.01-0.02,0.02-0.03,0.03l-35.31,31.5c-0.96,0.86-0.95,2.24,0.02,3.09c0.97,0.85,2.53,0.85,3.49-0.01l1.95-1.74l-0.41,28.94
		c-0.05,3.47,3.09,6.33,7.01,6.39l52.46,0.75c3.91,0.06,7.14-2.72,7.19-6.18l0.41-28.94l1.9,1.8c0.48,0.45,1.12,0.68,1.77,0.69
		c0.62,0.01,1.24-0.19,1.72-0.59C413.03,103.23,413.08,101.85,412.14,100.97L412.14,100.97z M401.3,131.03
		c-0.02,1.06-1,1.9-2.19,1.88l-52.46-0.75c-1.19-0.02-2.15-0.89-2.13-1.94l0.48-33.48l28.33-25.27c0.24-0.2,0.62-0.19,0.85,0.01
		l27.6,26.07L401.3,131.03z M401.3,131.03"/>
</g>
<g>
	<defs>
		
			<rect id="SVGID_11_" x="-3943.67" y="1109.43" transform="matrix(0.0143 -0.9999 0.9999 0.0143 -5001.6328 -2775.7759)" width="69.97" height="79.01"/>
	</defs>
	<clipPath id="SVGID_12_">
		<use xlink:href="#SVGID_11_"  style="overflow:visible;"/>
	</clipPath>
	<path class="st12" d="M-3900.96,1152.54"/>
	<path class="st13" d="M-3869.86,1147.97l-34.39-32.49c-0.01-0.01-0.02-0.02-0.03-0.03c-2.14-1.95-5.66-2-7.86-0.11
		c-0.01,0.01-0.02,0.02-0.03,0.03l-35.31,31.5c-0.96,0.86-0.95,2.24,0.02,3.09c0.97,0.85,2.53,0.85,3.49-0.01l1.95-1.74l-0.41,28.94
		c-0.05,3.47,3.09,6.33,7.01,6.39l52.46,0.75c3.91,0.06,7.14-2.72,7.19-6.18l0.41-28.94l1.9,1.8c0.48,0.45,1.12,0.68,1.77,0.69
		c0.62,0.01,1.24-0.19,1.72-0.59C-3868.97,1150.23-3868.92,1148.85-3869.86,1147.97L-3869.86,1147.97z M-3880.7,1178.03
		c-0.01,1.06-1,1.9-2.19,1.88l-52.46-0.75c-1.19-0.02-2.15-0.89-2.13-1.94l0.48-33.48l28.33-25.27c0.24-0.2,0.62-0.19,0.85,0.01
		l27.6,26.07L-3880.7,1178.03z M-3880.7,1178.03"/>
</g>
</svg>
